<svg width="40" height="40" viewBox="0 0 40 40" fill="none" xmlns="http://www.w3.org/2000/svg">
<path d="M19.5163 29.983C16.9507 29.8617 14.5304 28.7568 12.7582 26.8976C10.986 25.0385 9.9981 22.5681 9.99967 19.9997C9.99967 14.483 14.483 9.99967 19.9997 9.99967C25.3663 9.99967 29.733 14.2163 29.983 19.5163L26.483 18.4663C26.2106 17.311 25.6346 16.2493 24.8144 15.3911C23.9943 14.5329 22.9599 13.9093 21.8181 13.5848C20.6763 13.2603 19.4685 13.2466 18.3196 13.5451C17.1707 13.8437 16.1224 14.4437 15.283 15.283C14.4437 16.1224 13.8437 17.1707 13.5451 18.3196C13.2466 19.4685 13.2603 20.6763 13.5848 21.8181C13.9094 22.9599 14.5329 23.9943 15.3911 24.8144C16.2493 25.6346 17.311 26.2106 18.4663 26.483L19.5163 29.983ZM36.6663 19.9997C36.6663 20.4997 36.6497 20.9997 36.5997 21.4997L33.3163 20.5163C33.333 20.3497 33.333 20.1663 33.333 19.9997C33.333 12.633 27.3663 6.66634 19.9997 6.66634C12.633 6.66634 6.66634 12.633 6.66634 19.9997C6.66634 27.3663 12.633 33.333 19.9997 33.333C20.1663 33.333 20.3497 33.333 20.5163 33.3163L21.4997 36.5997C20.9997 36.6497 20.4997 36.6663 19.9997 36.6663C10.7997 36.6663 3.33301 29.1997 3.33301 19.9997C3.33301 10.7997 10.7997 3.33301 19.9997 3.33301C29.1997 3.33301 36.6663 10.7997 36.6663 19.9997ZM30.383 27.0997L36.6663 24.9997L19.9997 19.9997L24.9997 36.6663L27.0997 30.383L34.2163 37.4997L37.5163 34.1997L30.383 27.0997Z" fill="#E86B15"/>
</svg>
