<svg width="40" height="40" viewBox="0 0 40 40" fill="none" xmlns="http://www.w3.org/2000/svg">
<path d="M24.1663 28.3333C24.1663 31.0833 21.9163 33.3333 19.1663 33.3333C16.4163 33.3333 14.1663 31.0833 14.1663 28.3333H17.4997C17.4997 29.25 18.2497 30 19.1663 30C20.083 30 20.833 29.25 20.833 28.3333C20.833 27.4167 20.083 26.6667 19.1663 26.6667H3.33301V23.3333H19.1663C21.9163 23.3333 24.1663 25.5833 24.1663 28.3333ZM31.6663 10.8333C31.6663 7.61667 29.0497 5 25.833 5C22.6163 5 19.9997 7.61667 19.9997 10.8333H23.333C23.333 9.45 24.4497 8.33333 25.833 8.33333C27.2163 8.33333 28.333 9.45 28.333 10.8333C28.333 12.2167 27.2163 13.3333 25.833 13.3333H3.33301V16.6667H25.833C29.0497 16.6667 31.6663 14.05 31.6663 10.8333ZM30.833 18.3333H3.33301V21.6667H30.833C32.2163 21.6667 33.333 22.7833 33.333 24.1667C33.333 25.55 32.2163 26.6667 30.833 26.6667V30C34.0497 30 36.6663 27.3833 36.6663 24.1667C36.6663 20.95 34.0497 18.3333 30.833 18.3333Z" fill="#1A53FF"/>
</svg>
