<svg width="48" height="48" viewBox="0 0 48 48" fill="none" xmlns="http://www.w3.org/2000/svg">
<path d="M18.9997 38.9997C18.9997 39.833 19.6663 40.6663 20.6663 40.6663H27.333C28.333 40.6663 28.9997 39.833 28.9997 38.9997V37.333H18.9997V38.9997ZM23.9997 7.33301C17.4997 7.33301 12.333 12.4997 12.333 18.9997C12.333 22.9997 14.333 26.4997 17.333 28.4997V32.333C17.333 33.1663 17.9997 33.9997 18.9997 33.9997H28.9997C29.9997 33.9997 30.6663 33.1663 30.6663 32.333V28.4997C33.6663 26.333 35.6663 22.833 35.6663 18.9997C35.6663 12.4997 30.4997 7.33301 23.9997 7.33301Z" fill="#1A53FF"/>
</svg>
