<svg width="40" height="40" viewBox="0 0 40 40" fill="none" xmlns="http://www.w3.org/2000/svg">
<path d="M1.66699 18.333H8.33366V36.6663H1.66699V18.333ZM26.667 5.41634C27.7503 4.14967 29.4337 3.33301 31.167 3.33301C34.2503 3.33301 36.667 5.74967 36.667 8.83301C36.667 12.6163 31.817 16.9997 26.667 21.6663C21.517 16.983 16.667 12.5997 16.667 8.83301C16.667 5.74967 19.0837 3.33301 22.167 3.33301C23.9003 3.33301 25.5837 4.14967 26.667 5.41634ZM33.3337 28.333H21.667L18.1837 27.1163L18.7337 25.5497L21.667 26.6663H26.367C27.4503 26.6663 28.3337 25.783 28.3337 24.6997C28.3337 23.883 27.817 23.1497 27.0503 22.8497L14.9503 18.333H11.667V33.3663L23.3337 36.6663L36.6837 31.6663C36.667 29.833 35.1837 28.333 33.3337 28.333Z" fill="#30BD30"/>
</svg>
