<svg width="40" height="40" viewBox="0 0 40 40" fill="none" xmlns="http://www.w3.org/2000/svg">
<path d="M33.0502 12.4999L29.2668 8.71659C29.3835 8.01659 29.5668 7.36659 29.8002 6.79992C29.9835 6.36659 30.0502 5.86659 29.9502 5.34992C29.7335 4.14992 28.5668 3.31659 27.3335 3.33325C24.6835 3.38325 22.3335 4.68325 20.8335 6.66659H12.5002C7.4335 6.66659 3.3335 10.7666 3.3335 15.8333C3.3335 19.5833 5.61683 28.2999 6.80016 32.5666C7.20016 33.9999 8.51683 34.9999 10.0168 34.9999H13.3335C15.1668 34.9999 16.6668 33.4999 16.6668 31.6666H20.0002C20.0002 33.4999 21.5002 34.9999 23.3335 34.9999H26.6835C28.1502 34.9999 29.4502 34.0333 29.8835 32.6166L31.9668 25.6833L35.5335 24.4833C35.8645 24.3714 36.1521 24.1584 36.3554 23.8743C36.5588 23.5902 36.6677 23.2493 36.6668 22.8999V14.1666C36.6668 13.2499 35.9168 12.4999 35.0002 12.4999H33.0502ZM20.0002 14.9999H15.0002C14.0835 14.9999 13.3335 14.2499 13.3335 13.3333C13.3335 12.4166 14.0835 11.6666 15.0002 11.6666H20.0002C20.9168 11.6666 21.6668 12.4166 21.6668 13.3333C21.6668 14.2499 20.9168 14.9999 20.0002 14.9999ZM26.6668 18.3333C25.7502 18.3333 25.0002 17.5833 25.0002 16.6666C25.0002 15.7499 25.7502 14.9999 26.6668 14.9999C27.5835 14.9999 28.3335 15.7499 28.3335 16.6666C28.3335 17.5833 27.5835 18.3333 26.6668 18.3333Z" fill="#E86B15"/>
</svg>
