<svg width="40" height="40" viewBox="0 0 40 40" fill="none" xmlns="http://www.w3.org/2000/svg">
<path d="M20.0003 10.0003V15.0003L26.667 8.33366L20.0003 1.66699V6.66699C12.6337 6.66699 6.66699 12.6337 6.66699 20.0003C6.66699 22.617 7.43366 25.0503 8.73366 27.1003L11.167 24.667C10.3978 23.232 9.99688 21.6285 10.0003 20.0003C10.0003 14.4837 14.4837 10.0003 20.0003 10.0003ZM31.267 12.9003L28.8337 15.3337C29.567 16.7337 30.0003 18.317 30.0003 20.0003C30.0003 25.517 25.517 30.0003 20.0003 30.0003V25.0003L13.3337 31.667L20.0003 38.3337V33.3337C27.367 33.3337 33.3337 27.367 33.3337 20.0003C33.3337 17.3837 32.567 14.9503 31.267 12.9003Z" fill="#30BD30"/>
</svg>
