<svg width="32" height="32" viewBox="0 0 32 32" fill="none" xmlns="http://www.w3.org/2000/svg">
<path d="M10.3465 21.6532C8.89317 20.2132 7.99984 18.2132 7.99984 15.9999C7.99984 13.7866 8.89317 11.7866 10.3465 10.3466L12.2398 12.2399C11.2665 13.1999 10.6665 14.5332 10.6665 15.9999C10.6665 17.4666 11.2665 18.7999 12.2265 19.7732L10.3465 21.6532ZM21.6532 21.6532C23.1065 20.2132 23.9998 18.2132 23.9998 15.9999C23.9998 13.7866 23.1065 11.7866 21.6532 10.3466L19.7598 12.2399C20.7332 13.1999 21.3332 14.5332 21.3332 15.9999C21.3332 17.4666 20.7332 18.7999 19.7732 19.7732L21.6532 21.6532ZM15.9998 13.3332C14.5332 13.3332 13.3332 14.5332 13.3332 15.9999C13.3332 17.4666 14.5332 18.6666 15.9998 18.6666C17.4665 18.6666 18.6665 17.4666 18.6665 15.9999C18.6665 14.5332 17.4665 13.3332 15.9998 13.3332ZM26.6665 15.9999C26.6665 18.9466 25.4665 21.6132 23.5332 23.5332L25.4265 25.4266C27.8398 23.0132 29.3332 19.6799 29.3332 15.9999C29.3332 12.3199 27.8398 8.98658 25.4265 6.57324L23.5332 8.46658C24.5278 9.45258 25.3169 10.6261 25.8547 11.9193C26.3926 13.2124 26.6685 14.5994 26.6665 15.9999ZM8.4665 8.46658L6.57317 6.57324C4.15984 8.98658 2.6665 12.3199 2.6665 15.9999C2.6665 19.6799 4.15984 23.0132 6.57317 25.4266L8.4665 23.5332C6.53317 21.6132 5.33317 18.9466 5.33317 15.9999C5.33317 13.0532 6.53317 10.3866 8.4665 8.46658Z" fill="#30BD30"/>
</svg>
