<svg width="40" height="40" viewBox="0 0 40 40" fill="none" xmlns="http://www.w3.org/2000/svg">
<path d="M12.6338 6.80033L10.2505 4.41699C6.25046 7.46699 3.61712 12.167 3.38379 17.5003H6.71712C6.83578 15.3868 7.42935 13.3272 8.45371 11.4747C9.47806 9.62226 10.9068 8.02451 12.6338 6.80033ZM33.2838 17.5003H36.6171C36.3671 12.167 33.7338 7.46699 29.7505 4.41699L27.3838 6.80033C29.1034 8.03053 30.5258 9.63003 31.5467 11.4815C32.5676 13.333 33.1611 15.3896 33.2838 17.5003ZM30.0005 18.3337C30.0005 13.217 27.2671 8.93366 22.5005 7.80033V6.66699C22.5005 5.28366 21.3838 4.16699 20.0005 4.16699C18.6171 4.16699 17.5005 5.28366 17.5005 6.66699V7.80033C12.7171 8.93366 10.0005 13.2003 10.0005 18.3337V26.667L6.66712 30.0003V31.667H33.3338V30.0003L30.0005 26.667V18.3337ZM20.0005 36.667C20.2338 36.667 20.4505 36.6503 20.6671 36.6003C21.7505 36.367 22.6338 35.6337 23.0671 34.6337C23.2338 34.2337 23.3171 33.8003 23.3171 33.3337H16.6505C16.6671 35.167 18.1505 36.667 20.0005 36.667Z" fill="#30BD30"/>
</svg>
