<svg width="32" height="32" viewBox="0 0 32 32" fill="none" xmlns="http://www.w3.org/2000/svg">
<path d="M1.3335 11.9997L4.00016 14.6664C10.6268 8.03969 21.3735 8.03969 28.0002 14.6664L30.6668 11.9997C22.5735 3.90635 9.44016 3.90635 1.3335 11.9997ZM12.0002 22.6664L16.0002 26.6664L20.0002 22.6664C19.4754 22.1402 18.8519 21.7227 18.1655 21.4378C17.4792 21.153 16.7433 21.0064 16.0002 21.0064C15.257 21.0064 14.5212 21.153 13.8348 21.4378C13.1484 21.7227 12.5249 22.1402 12.0002 22.6664ZM6.66683 17.333L9.3335 19.9997C11.1021 18.2325 13.5 17.2399 16.0002 17.2399C18.5003 17.2399 20.8982 18.2325 22.6668 19.9997L25.3335 17.333C20.1868 12.1864 11.8268 12.1864 6.66683 17.333Z" fill="#E86B15"/>
</svg>
